<?xml version="1.0" standalone="no"?>
<!DOCTYPE svg PUBLIC "-//W3C//DTD SVG 20010904//EN"
 "http://www.w3.org/TR/2001/REC-SVG-20010904/DTD/svg10.dtd">
<svg version="1.0" xmlns="http://www.w3.org/2000/svg"
 width="16.000000pt" height="16.000000pt" viewBox="0 0 16.000000 16.000000"
 preserveAspectRatio="xMidYMid meet">
<metadata>
Created by potrace 1.11, written by Peter Selinger 2001-2013
</metadata>
<g transform="translate(0.000000,16.000000) scale(0.006154,-0.006154)"
fill="#000000" stroke="none">
<path d="M0 1300 l0 -1300 1300 0 1300 0 0 1300 0 1300 -1300 0 -1300 0 0
-1300z m1415 1151 c51 -23 118 -96 136 -147 45 -134 -22 -306 -137 -350 l-45
-17 3 -66 c3 -64 4 -65 33 -72 17 -4 47 -14 67 -23 21 -9 53 -16 73 -16 34 0
35 -1 35 -40 0 -37 -2 -40 -29 -40 -16 0 -48 -9 -72 -20 -24 -11 -59 -20 -76
-20 l-33 0 0 -594 c0 -332 4 -597 9 -600 13 -8 127 31 196 67 83 43 182 145
228 234 l37 71 -31 11 c-17 6 -53 13 -80 17 -27 4 -48 10 -47 14 2 4 72 71
156 150 84 78 160 152 168 166 18 27 34 23 34 -9 0 -40 81 -363 105 -419 10
-25 -11 -23 -79 7 -31 14 -62 25 -69 25 -7 0 -32 -36 -56 -80 -109 -197 -268
-330 -461 -386 -81 -23 -73 -16 -157 -148 -10 -16 -23 -31 -30 -33 -6 -2 -33
34 -59 80 l-49 84 -70 18 c-79 20 -160 57 -226 102 -98 68 -211 206 -259 317
-19 44 -22 48 -48 41 -15 -3 -51 -17 -81 -31 -30 -13 -56 -23 -57 -21 -2 2 19
84 46 183 28 98 53 203 57 232 3 28 10 52 15 52 5 0 64 -56 131 -124 67 -68
146 -140 176 -160 l55 -35 -35 -15 c-19 -7 -58 -17 -86 -21 -29 -4 -53 -9 -53
-11 0 -30 94 -176 147 -226 65 -63 189 -129 286 -152 l27 -6 0 593 0 594 -72
27 c-40 14 -83 26 -95 26 -20 0 -23 5 -23 39 0 38 1 39 43 44 23 3 65 13 94
24 l51 18 4 64 c3 61 2 64 -26 78 -45 23 -116 93 -139 138 -17 31 -22 57 -21
120 0 89 7 107 67 172 88 96 209 123 322 74z"/>
<path d="M1231 2323 c-73 -38 -94 -107 -56 -187 27 -57 67 -78 139 -73 51 3
63 8 87 35 39 43 46 93 23 150 -11 25 -30 53 -44 63 -38 28 -108 34 -149 12z"/>
</g>
</svg>
